<?xml version="1.0" standalone="no"?>
<!DOCTYPE svg PUBLIC "-//W3C//DTD SVG 20010904//EN"
 "http://www.w3.org/TR/2001/REC-SVG-20010904/DTD/svg10.dtd">
<svg version="1.0" xmlns="http://www.w3.org/2000/svg"
 width="289.000000pt" height="140.000000pt" viewBox="0 0 289.000000 140.000000"
 preserveAspectRatio="xMidYMid meet">

<g transform="translate(0.000000,140.000000) scale(0.100000,-0.100000)"
fill="#000000" stroke="none">
<path d="M2255 1269 c-11 -17 1 -21 15 -4 8 9 8 15 2 15 -6 0 -14 -5 -17 -11z"/>
<path d="M1772 1204 c-24 -17 -29 -56 -9 -72 6 -6 30 -13 52 -17 22 -4 46 -12
53 -18 19 -15 14 -44 -10 -61 l-22 -16 22 0 c12 0 29 11 38 25 15 23 15 27 0
50 -10 15 -30 27 -53 31 -53 9 -73 22 -73 44 0 28 36 43 84 36 29 -4 37 -3 26
4 -23 15 -83 12 -108 -6z"/>
<path d="M2001 1178 c-10 -24 -30 -69 -44 -100 -18 -41 -22 -58 -13 -58 7 0
18 11 24 25 10 22 18 25 67 25 49 0 57 -3 67 -25 10 -22 28 -35 28 -19 0 23
-86 194 -97 194 -7 0 -22 -19 -32 -42z m62 -37 c9 -27 17 -51 17 -55 0 -3 -20
-6 -45 -6 -34 0 -45 4 -45 15 0 20 38 95 48 95 4 0 15 -22 25 -49z"/>
<path d="M2167 1213 c-11 -10 -8 -117 4 -151 8 -24 20 -34 46 -41 46 -13 90
-4 108 23 17 24 21 176 5 176 -6 0 -10 -32 -10 -75 0 -68 -3 -79 -26 -101 -19
-20 -31 -24 -52 -19 -47 12 -52 22 -52 111 0 77 -5 95 -23 77z"/>
<path d="M2400 1119 l0 -101 69 4 c50 2 75 9 90 22 28 26 36 75 18 118 -13 32
-21 37 -67 47 -28 6 -64 11 -80 11 l-30 0 0 -101z m138 61 c32 -30 30 -93 -3
-125 -18 -19 -35 -25 -70 -25 l-45 0 0 85 0 85 48 0 c35 0 54 -6 70 -20z"/>
<path d="M2638 1120 l-3 -100 75 2 75 2 -62 3 -63 4 0 44 0 44 58 4 57 3 -57
2 -58 2 0 35 0 35 55 0 c30 0 55 5 55 10 0 6 -28 10 -64 10 l-65 0 -3 -100z"/>
<path d="M426 1179 c-36 -43 -35 -91 3 -130 54 -54 138 -35 161 37 23 68 -21
124 -96 124 -35 0 -47 -5 -68 -31z"/>
<path d="M1750 1030 c0 -7 71 -22 77 -16 2 2 -14 8 -37 14 -22 5 -40 6 -40 2z"/>
<path d="M371 908 c-10 -24 -53 -117 -96 -208 -42 -91 -83 -180 -91 -198 l-15
-33 86 3 87 3 76 197 c42 109 80 198 83 198 3 0 12 -21 21 -47 23 -66 55 -152
97 -258 l36 -90 83 -3 c45 -2 82 1 82 6 0 11 -200 444 -213 460 -6 8 -42 12
-114 12 l-104 0 -18 -42z"/>
<path d="M985 940 c-63 -21 -95 -66 -95 -134 0 -43 4 -53 35 -82 28 -26 51
-36 112 -49 123 -26 148 -37 151 -67 8 -69 -102 -77 -280 -21 -15 5 -18 -1
-18 -40 0 -25 4 -48 9 -51 5 -3 53 -13 106 -22 77 -13 110 -14 160 -6 111 18
154 53 162 133 8 88 -37 126 -189 158 -128 27 -153 50 -102 90 33 26 104 28
187 6 32 -8 60 -15 62 -15 3 0 5 20 5 44 0 32 -5 46 -17 51 -28 12 -255 15
-288 5z"/>
<path d="M1463 931 c-67 -31 -96 -96 -73 -165 15 -48 57 -71 171 -97 125 -28
154 -54 109 -99 -27 -27 -126 -27 -212 0 -34 11 -64 20 -65 20 -2 0 -3 -22 -3
-49 l0 -48 58 -11 c144 -27 244 -22 314 14 56 29 81 133 44 189 -22 34 -68 53
-178 75 -96 19 -121 33 -116 64 7 45 103 59 208 31 30 -8 58 -15 63 -15 4 0 7
20 7 44 0 32 -5 46 -17 51 -10 4 -74 9 -143 12 -109 3 -130 1 -167 -16z"/>
<path d="M1910 710 l0 -240 70 0 70 0 0 240 0 240 -70 0 -70 0 0 -240z"/>
<path d="M2155 938 c-3 -8 -4 -115 -3 -238 l3 -225 67 -3 68 -3 2 172 3 172
65 -124 65 -124 44 0 43 0 62 122 c33 68 64 123 69 123 4 0 7 -76 7 -170 l0
-170 65 0 65 0 0 240 0 240 -90 0 -90 0 -66 -132 -66 -132 -67 129 -66 130
-88 3 c-65 2 -89 -1 -92 -10z"/>
<path d="M1910 206 c0 -24 -5 -36 -17 -39 -14 -4 -12 -5 5 -6 19 -1 22 4 22
39 0 22 -2 40 -5 40 -3 0 -5 -15 -5 -34z"/>
<path d="M2143 200 c0 -25 2 -35 4 -22 2 12 2 32 0 45 -2 12 -4 2 -4 -23z"/>
<path d="M1433 198 c1 -26 7 -33 25 -34 17 -1 18 -1 3 3 -12 3 -22 15 -25 34
-6 28 -6 27 -3 -3z"/>
<path d="M2022 195 c0 -22 2 -32 5 -22 3 11 11 16 18 13 14 -5 32 30 21 41 -3
4 -6 -1 -6 -10 0 -22 -27 -22 -33 1 -3 9 -5 -1 -5 -23z"/>
<path d="M1526 207 c3 -10 9 -15 12 -12 3 3 0 11 -7 18 -10 9 -11 8 -5 -6z"/>
<path d="M1610 216 c0 -2 8 -10 18 -17 15 -13 16 -12 3 4 -13 16 -21 21 -21
13z"/>
<path d="M1716 212 c-2 -4 4 -8 14 -8 10 0 16 4 14 8 -3 4 -9 8 -14 8 -5 0
-11 -4 -14 -8z"/>
<path d="M1818 195 c4 -25 -12 -35 -21 -12 -3 7 -6 5 -6 -5 -1 -12 6 -18 19
-18 15 0 20 7 20 24 0 14 -4 27 -9 30 -4 3 -6 -6 -3 -19z"/>
<path d="M1880 205 c-7 -9 -11 -17 -9 -20 3 -2 10 5 17 15 14 24 10 26 -8 5z"/>
<path d="M1940 205 c-7 -9 -11 -17 -9 -20 3 -2 10 5 17 15 14 24 10 26 -8 5z"/>
<path d="M2100 216 c0 -2 8 -10 18 -17 15 -13 16 -12 3 4 -13 16 -21 21 -21
13z"/>
<path d="M2310 205 c-7 -9 -11 -17 -9 -20 3 -2 10 5 17 15 14 24 10 26 -8 5z"/>
<path d="M2399 188 c4 -28 6 -29 9 -9 2 13 0 27 -5 32 -6 6 -7 -3 -4 -23z"/>
<path d="M2549 188 c4 -28 6 -29 9 -9 2 13 0 27 -5 32 -6 6 -7 -3 -4 -23z"/>
<path d="M2584 205 c-9 -23 3 -45 23 -44 17 1 17 2 0 6 -14 4 -18 12 -14 29 5
27 -1 32 -9 9z"/>
<path d="M2736 212 c-2 -4 4 -8 14 -8 10 0 16 4 14 8 -3 4 -9 8 -14 8 -5 0
-11 -4 -14 -8z"/>
<path d="M1504 185 c1 -12 9 -21 21 -22 14 -1 15 0 3 3 -9 3 -19 13 -21 22 -3
12 -4 11 -3 -3z"/>
<path d="M1562 185 c0 -16 2 -22 5 -12 2 9 2 23 0 30 -3 6 -5 -1 -5 -18z"/>
<path d="M1652 185 c0 -16 2 -22 5 -12 2 9 2 23 0 30 -3 6 -5 -1 -5 -18z"/>
<path d="M2282 185 c0 -16 2 -22 5 -12 2 9 2 23 0 30 -3 6 -5 -1 -5 -18z"/>
<path d="M2341 193 c-1 -12 -9 -24 -18 -26 -17 -4 -17 -5 0 -6 19 -1 32 21 24
41 -3 7 -6 3 -6 -9z"/>
<path d="M2482 185 c0 -16 2 -22 5 -12 2 9 2 23 0 30 -3 6 -5 -1 -5 -18z"/>
<path d="M2522 185 c0 -16 2 -22 5 -12 2 9 2 23 0 30 -3 6 -5 -1 -5 -18z"/>
<path d="M2632 185 c0 -16 2 -22 5 -12 2 9 2 23 0 30 -3 6 -5 -1 -5 -18z"/>
<path d="M1594 180 c1 -8 10 -16 21 -17 15 -1 15 0 3 3 -9 3 -19 11 -21 17 -2
7 -3 5 -3 -3z"/>
<path d="M2084 180 c1 -8 10 -16 21 -17 15 -1 15 0 3 3 -9 3 -19 11 -21 17 -2
7 -3 5 -3 -3z"/>
<path d="M2200 186 c0 -8 -8 -17 -17 -19 -14 -4 -12 -5 5 -6 16 -1 22 5 22 19
0 11 -2 20 -5 20 -3 0 -5 -6 -5 -14z"/>
<path d="M2224 180 c1 -8 10 -16 21 -17 15 -1 15 0 3 3 -9 3 -19 11 -21 17 -2
7 -3 5 -3 -3z"/>
<path d="M2460 186 c0 -8 -8 -17 -17 -19 -14 -4 -12 -5 5 -6 16 -1 22 5 22 19
0 11 -2 20 -5 20 -3 0 -5 -6 -5 -14z"/>
<path d="M2672 180 c0 -14 2 -19 5 -12 2 6 2 18 0 25 -3 6 -5 1 -5 -13z"/>
<path d="M1720 166 c7 -7 13 -7 20 0 6 6 3 10 -10 10 -13 0 -16 -4 -10 -10z"/>
<path d="M2740 166 c7 -7 13 -7 20 0 6 6 3 10 -10 10 -13 0 -16 -4 -10 -10z"/>
<path d="M1948 163 c7 -3 16 -2 19 1 4 3 -2 6 -13 5 -11 0 -14 -3 -6 -6z"/>
</g>
</svg>
